<?xml version="1.0" encoding="UTF-8" standalone="no"?><!DOCTYPE svg PUBLIC "-//W3C//DTD SVG 1.1//EN" "http://www.w3.org/Graphics/SVG/1.1/DTD/svg11.dtd"><svg width="100%" height="100%" viewBox="0 0 300 300" version="1.1" xmlns="http://www.w3.org/2000/svg" xmlns:xlink="http://www.w3.org/1999/xlink" xml:space="preserve" style="fill-rule:evenodd;clip-rule:evenodd;stroke-linejoin:round;stroke-miterlimit:1.41421;"><circle cx="150" cy="150" r="129.052" style="fill:#fff;"/><path d="M150.437,14.698l0.437,0.002l0.436,0.004l0.436,0.005l0.436,0.006l0.435,0.007l0.435,0.009l0.435,0.011l0.435,0.011l0.434,0.014l0.434,0.014l0.433,0.016l0.433,0.017l0.433,0.019l0.433,0.019l0.432,0.022l0.431,0.022l0.432,0.024l0.431,0.026l0.431,0.026l0.43,0.028l0.43,0.03l0.43,0.03l0.429,0.032l0.429,0.034l0.429,0.034l0.428,0.036l0.428,0.038l0.427,0.038l0.427,0.04l0.427,0.042l0.426,0.042l0.426,0.044l0.426,0.046l0.425,0.046l0.425,0.048l0.424,0.05l0.424,0.05l0.424,0.052l0.423,0.053l0.423,0.055l0.422,0.056l0.422,0.057l0.422,0.058l0.421,0.06l0.421,0.061l0.421,0.062l0.42,0.064l0.419,0.064l0.419,0.067l0.419,0.067l0.418,0.069l0.418,0.07l0.418,0.071l0.417,0.073l0.416,0.073l0.416,0.075l0.416,0.077l0.415,0.077l0.415,0.079l0.415,0.08l0.414,0.082l0.413,0.083l0.413,0.084l0.413,0.085l0.412,0.086l0.412,0.088l0.411,0.089l0.411,0.09l0.41,0.091l0.41,0.093l0.409,0.094l0.409,0.095l0.408,0.097l0.408,0.097l0.408,0.099l0.407,0.1l0.406,0.102l0.407,0.102l0.405,0.104l0.405,0.105l0.405,0.106l0.404,0.108l0.403,0.108l0.404,0.11l0.402,0.111l0.402,0.112l0.402,0.114l0.401,0.115l0.4,0.116l0.401,0.117l0.399,0.118l0.399,0.119l0.399,0.121l0.398,0.122l0.397,0.123l0.397,0.124l0.397,0.126l0.396,0.126l0.395,0.128l0.395,0.129l0.394,0.13l0.394,0.132l0.393,0.132l0.393,0.134l0.392,0.135l0.392,0.136l0.391,0.137l0.391,0.138l0.39,0.14l0.389,0.141l0.389,0.141l0.388,0.143l0.388,0.144l0.387,0.146l0.387,0.146l0.386,0.148l0.385,0.149l0.385,0.149l0.385,0.151l0.384,0.153l0.383,0.153l0.383,0.154l0.382,0.156l0.381,0.156l0.381,0.158l0.38,0.159l0.38,0.16l0.379,0.161l0.379,0.163l0.378,0.163l0.377,0.165l0.377,0.165l0.376,0.167l0.376,0.168l0.375,0.169l0.374,0.17l0.374,0.171l0.373,0.172l0.372,0.174l0.372,0.174l0.371,0.176l0.371,0.176l0.37,0.178l0.37,0.179l0.368,0.18l0.369,0.181l0.367,0.182l0.367,0.183l0.366,0.184l0.366,0.185l0.365,0.187l0.364,0.187l0.364,0.189l0.363,0.189l0.362,0.191l0.362,0.191l0.361,0.193l0.361,0.194l0.36,0.195l0.359,0.196l0.358,0.197l0.358,0.198l0.357,0.199l0.357,0.2l0.356,0.201l0.355,0.202l0.354,0.203l0.354,0.205l0.353,0.205l0.353,0.206l0.351,0.208l0.351,0.208l0.351,0.209l0.35,0.211l0.349,0.211l0.348,0.213l0.348,0.213l0.347,0.215l0.346,0.215l0.346,0.217l0.344,0.217l0.345,0.219l0.343,0.22l0.343,0.22l0.342,0.222l0.341,0.222l0.341,0.224l0.34,0.224l0.339,0.226l0.338,0.226l0.338,0.228l0.337,0.228l0.336,0.23l0.336,0.23l0.335,0.232l0.334,0.232l0.333,0.234l0.333,0.234l0.332,0.235l0.331,0.237l0.331,0.237l0.329,0.238l0.329,0.24l0.328,0.24l0.328,0.241l0.326,0.242l0.326,0.243l0.326,0.244l0.324,0.245l0.324,0.246l0.323,0.247l0.322,0.248l0.321,0.248l0.321,0.25l0.319,0.251l0.32,0.251l0.318,0.253l0.317,0.253l0.317,0.254l0.316,0.256l0.315,0.256l0.315,0.257l0.313,0.258l0.313,0.259l0.312,0.26l0.311,0.261l0.311,0.262l0.309,0.262l0.309,0.264l0.308,0.264l0.307,0.266l0.307,0.266l0.305,0.267l0.305,0.268l0.304,0.269l0.303,0.27l0.303,0.271l0.301,0.271l0.301,0.273l0.3,0.273l0.299,0.275l0.298,0.275l0.298,0.276l0.296,0.277l0.296,0.278l0.295,0.278l0.294,0.28l0.293,0.28l0.293,0.282l0.291,0.282l0.291,0.283l0.29,0.284l0.289,0.285l0.288,0.285l0.287,0.287l0.287,0.287l0.286,0.288l0.284,0.289l0.284,0.29l0.283,0.291l0.282,0.291l0.282,0.293l0.28,0.293l0.28,0.294l0.278,0.295l0.278,0.296l0.277,0.296l0.276,0.298l0.275,0.298l0.275,0.299l0.273,0.3l0.273,0.301l0.271,0.301l0.271,0.303l0.27,0.303l0.269,0.304l0.268,0.305l0.267,0.305l0.266,0.307l0.266,0.307l0.264,0.308l0.264,0.309l0.262,0.309l0.262,0.311l0.261,0.311l0.26,0.312l0.259,0.313l0.258,0.313l0.257,0.315l0.256,0.315l0.255,0.316l0.255,0.317l0.253,0.317l0.253,0.318l0.251,0.32l0.251,0.319l0.25,0.321l0.248,0.321l0.248,0.322l0.247,0.323l0.246,0.324l0.245,0.324l0.244,0.326l0.243,0.326l0.242,0.326l0.241,0.328l0.24,0.328l0.24,0.329l0.238,0.329l0.237,0.331l0.237,0.331l0.235,0.332l0.234,0.333l0.234,0.333l0.232,0.334l0.232,0.335l0.23,0.336l0.23,0.336l0.228,0.337l0.228,0.338l0.226,0.338l0.226,0.339l0.224,0.34l0.224,0.341l0.222,0.341l0.222,0.342l0.22,0.343l0.22,0.343l0.219,0.345l0.217,0.344l0.217,0.346l0.215,0.346l0.215,0.347l0.213,0.348l0.213,0.348l0.211,0.349l0.211,0.35l0.209,0.351l0.208,0.351l0.208,0.351l0.206,0.353l0.205,0.353l0.205,0.354l0.203,0.354l0.202,0.355l0.201,0.356l0.2,0.357l0.199,0.357l0.198,0.358l0.197,0.358l0.196,0.359l0.195,0.36l0.194,0.361l0.193,0.361l0.191,0.362l0.191,0.362l0.19,0.363l0.188,0.364l0.187,0.364l0.187,0.365l0.185,0.366l0.184,0.366l0.183,0.367l0.183,0.368l0.18,0.368l0.18,0.368l0.179,0.37l0.178,0.37l0.177,0.371l0.175,0.371l0.174,0.372l0.174,0.372l0.172,0.373l0.171,0.374l0.17,0.374l0.169,0.375l0.168,0.376l0.167,0.376l0.165,0.377l0.165,0.377l0.163,0.378l0.163,0.379l0.161,0.379l0.16,0.38l0.159,0.38l0.158,0.381l0.156,0.381l0.156,0.383l0.154,0.382l0.153,0.383l0.153,0.384l0.151,0.384l0.15,0.386l0.148,0.385l0.148,0.386l0.146,0.387l0.145,0.387l0.145,0.388l0.143,0.388l0.141,0.389l0.141,0.389l0.14,0.39l0.138,0.391l0.137,0.391l0.136,0.392l0.135,0.392l0.134,0.393l0.132,0.393l0.132,0.394l0.13,0.394l0.129,0.395l0.128,0.395l0.126,0.396l0.126,0.397l0.124,0.397l0.123,0.397l0.122,0.398l0.121,0.399l0.119,0.399l0.118,0.399l0.117,0.4l0.116,0.401l0.115,0.401l0.114,0.402l0.112,0.402l0.111,0.403l0.11,0.403l0.108,0.403l0.108,0.404l0.106,0.405l0.105,0.405l0.104,0.405l0.102,0.406l0.102,0.407l0.1,0.407l0.099,0.408l0.097,0.408l0.097,0.408l0.095,0.409l0.094,0.409l0.093,0.41l0.091,0.41l0.09,0.411l0.089,0.411l0.088,0.412l0.086,0.412l0.085,0.413l0.084,0.413l0.083,0.413l0.082,0.415l0.08,0.414l0.079,0.414l0.077,0.416l0.077,0.416l0.075,0.416l0.073,0.416l0.073,0.417l0.071,0.418l0.07,0.418l0.069,0.418l0.067,0.419l0.067,0.419l0.064,0.419l0.064,0.42l0.062,0.421l0.061,0.421l0.06,0.421l0.058,0.421l0.057,0.422l0.056,0.423l0.055,0.423l0.053,0.423l0.052,0.424l0.05,0.424l0.05,0.424l0.048,0.425l0.046,0.425l0.046,0.426l0.044,0.426l0.042,0.426l0.042,0.427l0.04,0.427l0.038,0.427l0.038,0.428l0.036,0.428l0.034,0.429l0.034,0.429l0.032,0.429l0.03,0.43l0.03,0.43l0.028,0.43l0.026,0.431l0.026,0.431l0.024,0.432l0.022,0.431l0.022,0.432l0.02,0.433l0.018,0.433l0.017,0.433l0.016,0.433l0.014,0.434l0.014,0.434l0.011,0.435l0.011,0.435l0.009,0.435l0.007,0.435l0.006,0.436l0.005,0.436l0.004,0.436l0.002,0.437l0,0.437l0,0.437l-0.002,0.437l-0.004,0.436l-0.005,0.436l-0.006,0.436l-0.007,0.435l-0.009,0.435l-0.011,0.435l-0.011,0.435l-0.014,0.434l-0.014,0.434l-0.016,0.433l-0.017,0.433l-0.018,0.433l-0.02,0.433l-0.022,0.432l-0.022,0.431l-0.024,0.432l-0.026,0.431l-0.026,0.431l-0.028,0.43l-0.03,0.43l-0.03,0.43l-0.032,0.429l-0.034,0.429l-0.034,0.429l-0.036,0.428l-0.038,0.428l-0.038,0.427l-0.04,0.427l-0.042,0.427l-0.042,0.426l-0.044,0.426l-0.046,0.426l-0.046,0.425l-0.048,0.425l-0.05,0.424l-0.05,0.424l-0.052,0.424l-0.053,0.423l-0.055,0.423l-0.056,0.423l-0.057,0.422l-0.058,0.421l-0.06,0.421l-0.061,0.421l-0.062,0.421l-0.064,0.42l-0.064,0.419l-0.067,0.419l-0.067,0.419l-0.069,0.418l-0.07,0.418l-0.071,0.418l-0.073,0.417l-0.073,0.416l-0.075,0.416l-0.077,0.416l-0.077,0.416l-0.079,0.414l-0.08,0.414l-0.082,0.415l-0.083,0.413l-0.084,0.413l-0.085,0.413l-0.086,0.412l-0.088,0.412l-0.089,0.411l-0.09,0.411l-0.091,0.41l-0.093,0.41l-0.094,0.409l-0.095,0.409l-0.097,0.408l-0.097,0.408l-0.099,0.408l-0.1,0.407l-0.102,0.407l-0.102,0.406l-0.104,0.405l-0.105,0.405l-0.106,0.405l-0.108,0.404l-0.108,0.403l-0.11,0.403l-0.111,0.403l-0.112,0.402l-0.114,0.402l-0.115,0.401l-0.116,0.401l-0.117,0.4l-0.118,0.399l-0.119,0.399l-0.121,0.399l-0.122,0.398l-0.123,0.397l-0.124,0.397l-0.126,0.397l-0.126,0.396l-0.128,0.395l-0.129,0.395l-0.13,0.394l-0.132,0.394l-0.132,0.393l-0.134,0.393l-0.135,0.392l-0.136,0.392l-0.137,0.391l-0.138,0.391l-0.14,0.39l-0.141,0.389l-0.141,0.389l-0.143,0.388l-0.145,0.388l-0.145,0.387l-0.146,0.387l-0.148,0.386l-0.148,0.385l-0.15,0.386l-0.151,0.384l-0.153,0.384l-0.153,0.383l-0.154,0.382l-0.156,0.383l-0.156,0.381l-0.158,0.381l-0.159,0.38l-0.16,0.38l-0.161,0.379l-0.163,0.379l-0.163,0.378l-0.165,0.377l-0.165,0.377l-0.167,0.376l-0.168,0.376l-0.169,0.375l-0.17,0.374l-0.171,0.374l-0.172,0.373l-0.174,0.372l-0.174,0.372l-0.175,0.371l-0.177,0.371l-0.178,0.37l-0.179,0.37l-0.18,0.368l-0.18,0.368l-0.183,0.368l-0.183,0.367l-0.184,0.366l-0.185,0.366l-0.187,0.365l-0.187,0.364l-0.188,0.364l-0.19,0.363l-0.191,0.362l-0.191,0.362l-0.193,0.361l-0.194,0.361l-0.195,0.359l-0.196,0.36l-0.197,0.358l-0.198,0.358l-0.199,0.357l-0.2,0.357l-0.201,0.356l-0.202,0.355l-0.203,0.354l-0.205,0.354l-0.205,0.353l-0.206,0.353l-0.208,0.351l-0.208,0.351l-0.209,0.351l-0.211,0.35l-0.211,0.349l-0.213,0.348l-0.213,0.348l-0.215,0.347l-0.215,0.346l-0.217,0.346l-0.217,0.344l-0.219,0.345l-0.22,0.343l-0.22,0.343l-0.222,0.342l-0.222,0.341l-0.224,0.341l-0.224,0.34l-0.226,0.339l-0.226,0.338l-0.228,0.338l-0.228,0.337l-0.23,0.336l-0.23,0.336l-0.232,0.335l-0.232,0.334l-0.234,0.333l-0.234,0.333l-0.235,0.332l-0.237,0.331l-0.237,0.331l-0.238,0.329l-0.24,0.329l-0.24,0.328l-0.241,0.328l-0.242,0.326l-0.243,0.326l-0.244,0.326l-0.245,0.324l-0.246,0.324l-0.247,0.323l-0.248,0.322l-0.248,0.321l-0.25,0.321l-0.251,0.319l-0.251,0.32l-0.253,0.318l-0.253,0.317l-0.254,0.317l-0.256,0.316l-0.256,0.315l-0.257,0.315l-0.258,0.313l-0.259,0.313l-0.26,0.312l-0.261,0.311l-0.262,0.311l-0.262,0.309l-0.264,0.309l-0.264,0.308l-0.266,0.307l-0.266,0.307l-0.267,0.305l-0.268,0.305l-0.269,0.304l-0.27,0.303l-0.271,0.303l-0.271,0.301l-0.273,0.301l-0.273,0.3l-0.275,0.299l-0.275,0.298l-0.276,0.298l-0.277,0.296l-0.278,0.296l-0.278,0.295l-0.28,0.294l-0.28,0.293l-0.282,0.293l-0.282,0.291l-0.283,0.291l-0.284,0.29l-0.284,0.289l-0.286,0.288l-0.287,0.287l-0.287,0.287l-0.288,0.286l-0.289,0.284l-0.29,0.284l-0.291,0.283l-0.291,0.282l-0.293,0.282l-0.293,0.28l-0.294,0.28l-0.295,0.278l-0.296,0.278l-0.296,0.277l-0.298,0.276l-0.298,0.275l-0.299,0.275l-0.3,0.273l-0.301,0.273l-0.301,0.271l-0.303,0.271l-0.303,0.27l-0.304,0.269l-0.305,0.268l-0.305,0.267l-0.307,0.266l-0.307,0.266l-0.308,0.264l-0.309,0.264l-0.309,0.262l-0.311,0.262l-0.311,0.261l-0.312,0.26l-0.313,0.259l-0.313,0.258l-0.315,0.257l-0.315,0.256l-0.316,0.256l-0.317,0.254l-0.317,0.253l-0.318,0.253l-0.32,0.251l-0.319,0.251l-0.321,0.25l-0.321,0.248l-0.322,0.248l-0.323,0.247l-0.324,0.246l-0.324,0.245l-0.326,0.244l-0.326,0.243l-0.326,0.242l-0.328,0.241l-0.328,0.24l-0.329,0.24l-0.329,0.238l-0.331,0.237l-0.331,0.237l-0.332,0.235l-0.333,0.234l-0.333,0.234l-0.334,0.232l-0.335,0.232l-0.336,0.23l-0.336,0.23l-0.337,0.228l-0.338,0.228l-0.338,0.226l-0.339,0.226l-0.34,0.224l-0.341,0.224l-0.341,0.222l-0.342,0.222l-0.343,0.22l-0.343,0.22l-0.345,0.219l-0.344,0.217l-0.346,0.217l-0.346,0.215l-0.347,0.215l-0.348,0.213l-0.348,0.213l-0.349,0.211l-0.35,0.211l-0.351,0.209l-0.351,0.208l-0.351,0.208l-0.353,0.206l-0.353,0.205l-0.354,0.205l-0.354,0.203l-0.355,0.202l-0.356,0.201l-0.357,0.2l-0.357,0.199l-0.358,0.198l-0.358,0.197l-0.36,0.196l-0.359,0.195l-0.361,0.194l-0.361,0.193l-0.362,0.191l-0.362,0.191l-0.363,0.19l-0.364,0.188l-0.364,0.187l-0.365,0.187l-0.366,0.185l-0.366,0.184l-0.367,0.183l-0.368,0.183l-0.368,0.18l-0.368,0.18l-0.37,0.179l-0.37,0.178l-0.371,0.177l-0.371,0.175l-0.372,0.174l-0.372,0.174l-0.373,0.172l-0.374,0.171l-0.374,0.17l-0.375,0.169l-0.376,0.168l-0.376,0.167l-0.377,0.165l-0.377,0.165l-0.378,0.163l-0.379,0.163l-0.379,0.161l-0.38,0.16l-0.38,0.159l-0.381,0.158l-0.381,0.156l-0.383,0.156l-0.382,0.154l-0.383,0.153l-0.384,0.153l-0.384,0.151l-0.386,0.15l-0.385,0.148l-0.386,0.148l-0.387,0.146l-0.387,0.145l-0.388,0.145l-0.388,0.143l-0.389,0.141l-0.389,0.141l-0.39,0.14l-0.391,0.138l-0.391,0.137l-0.392,0.136l-0.392,0.135l-0.393,0.134l-0.393,0.132l-0.394,0.132l-0.394,0.13l-0.395,0.129l-0.395,0.128l-0.396,0.126l-0.397,0.126l-0.397,0.124l-0.397,0.123l-0.398,0.122l-0.399,0.121l-0.399,0.119l-0.399,0.118l-0.4,0.117l-0.401,0.116l-0.401,0.115l-0.402,0.114l-0.402,0.112l-0.403,0.111l-0.403,0.11l-0.403,0.108l-0.404,0.108l-0.405,0.106l-0.405,0.105l-0.405,0.104l-0.406,0.102l-0.407,0.102l-0.407,0.1l-0.408,0.099l-0.408,0.097l-0.408,0.097l-0.409,0.095l-0.409,0.094l-0.41,0.093l-0.41,0.091l-0.411,0.09l-0.411,0.089l-0.412,0.088l-0.412,0.086l-0.413,0.085l-0.413,0.084l-0.413,0.083l-0.415,0.082l-0.414,0.08l-0.414,0.079l-0.416,0.077l-0.416,0.077l-0.416,0.075l-0.416,0.073l-0.417,0.073l-0.418,0.071l-0.418,0.07l-0.418,0.069l-0.419,0.067l-0.419,0.067l-0.419,0.064l-0.42,0.064l-0.421,0.062l-0.421,0.061l-0.421,0.06l-0.421,0.058l-0.422,0.057l-0.423,0.056l-0.423,0.055l-0.423,0.053l-0.424,0.052l-0.424,0.05l-0.424,0.05l-0.425,0.048l-0.425,0.046l-0.426,0.046l-0.426,0.044l-0.426,0.042l-0.427,0.042l-0.427,0.04l-0.427,0.038l-0.428,0.038l-0.428,0.036l-0.429,0.034l-0.429,0.034l-0.429,0.032l-0.43,0.03l-0.43,0.03l-0.43,0.028l-0.431,0.026l-0.431,0.026l-0.432,0.024l-0.431,0.022l-0.432,0.022l-0.433,0.02l-0.433,0.018l-0.433,0.017l-0.433,0.016l-0.434,0.014l-0.434,0.014l-0.435,0.011l-0.435,0.011l-0.435,0.009l-0.435,0.007l-0.436,0.006l-0.436,0.005l-0.436,0.004l-0.437,0.002l-0.437,0l-0.437,0l-0.437,-0.002l-0.436,-0.004l-0.436,-0.005l-0.436,-0.006l-0.435,-0.007l-0.435,-0.009l-0.435,-0.011l-0.435,-0.011l-0.434,-0.014l-0.434,-0.014l-0.433,-0.016l-0.433,-0.017l-0.433,-0.018l-0.433,-0.02l-0.432,-0.022l-0.431,-0.022l-0.432,-0.024l-0.431,-0.026l-0.431,-0.026l-0.43,-0.028l-0.43,-0.03l-0.43,-0.03l-0.429,-0.032l-0.429,-0.034l-0.429,-0.034l-0.428,-0.036l-0.428,-0.038l-0.427,-0.038l-0.427,-0.04l-0.427,-0.042l-0.426,-0.042l-0.426,-0.044l-0.426,-0.046l-0.425,-0.046l-0.425,-0.048l-0.424,-0.05l-0.424,-0.05l-0.424,-0.052l-0.423,-0.053l-0.423,-0.055l-0.423,-0.056l-0.422,-0.057l-0.421,-0.058l-0.421,-0.06l-0.421,-0.061l-0.421,-0.062l-0.42,-0.064l-0.419,-0.064l-0.419,-0.067l-0.419,-0.067l-0.418,-0.069l-0.418,-0.07l-0.418,-0.071l-0.417,-0.073l-0.416,-0.073l-0.416,-0.075l-0.416,-0.077l-0.416,-0.077l-0.414,-0.079l-0.414,-0.08l-0.415,-0.082l-0.413,-0.083l-0.413,-0.084l-0.413,-0.085l-0.412,-0.086l-0.412,-0.088l-0.411,-0.089l-0.411,-0.09l-0.41,-0.091l-0.41,-0.093l-0.409,-0.094l-0.409,-0.095l-0.408,-0.097l-0.408,-0.097l-0.408,-0.099l-0.407,-0.1l-0.407,-0.102l-0.406,-0.102l-0.405,-0.104l-0.405,-0.105l-0.405,-0.106l-0.404,-0.108l-0.403,-0.108l-0.403,-0.11l-0.403,-0.111l-0.402,-0.112l-0.402,-0.114l-0.401,-0.115l-0.401,-0.116l-0.4,-0.117l-0.399,-0.118l-0.399,-0.119l-0.399,-0.121l-0.398,-0.122l-0.397,-0.123l-0.397,-0.124l-0.397,-0.126l-0.396,-0.126l-0.395,-0.128l-0.395,-0.129l-0.394,-0.13l-0.394,-0.132l-0.393,-0.132l-0.393,-0.134l-0.392,-0.135l-0.392,-0.136l-0.391,-0.137l-0.391,-0.138l-0.39,-0.14l-0.389,-0.141l-0.389,-0.141l-0.388,-0.143l-0.388,-0.145l-0.387,-0.145l-0.387,-0.146l-0.386,-0.148l-0.385,-0.148l-0.386,-0.15l-0.384,-0.151l-0.384,-0.153l-0.383,-0.153l-0.382,-0.154l-0.383,-0.156l-0.381,-0.156l-0.381,-0.158l-0.38,-0.159l-0.38,-0.16l-0.379,-0.161l-0.379,-0.163l-0.378,-0.163l-0.377,-0.165l-0.377,-0.165l-0.376,-0.167l-0.376,-0.168l-0.375,-0.169l-0.374,-0.17l-0.374,-0.171l-0.373,-0.172l-0.372,-0.174l-0.372,-0.174l-0.371,-0.175l-0.371,-0.177l-0.37,-0.178l-0.37,-0.179l-0.368,-0.18l-0.368,-0.18l-0.368,-0.183l-0.367,-0.183l-0.366,-0.184l-0.366,-0.185l-0.365,-0.187l-0.364,-0.187l-0.364,-0.188l-0.363,-0.19l-0.362,-0.191l-0.362,-0.191l-0.361,-0.193l-0.361,-0.194l-0.36,-0.195l-0.359,-0.196l-0.358,-0.197l-0.358,-0.198l-0.357,-0.199l-0.357,-0.2l-0.356,-0.201l-0.355,-0.202l-0.354,-0.203l-0.354,-0.205l-0.353,-0.205l-0.353,-0.206l-0.351,-0.208l-0.351,-0.208l-0.351,-0.209l-0.35,-0.211l-0.349,-0.211l-0.348,-0.213l-0.348,-0.213l-0.347,-0.215l-0.346,-0.215l-0.346,-0.217l-0.344,-0.217l-0.345,-0.219l-0.343,-0.22l-0.343,-0.22l-0.342,-0.222l-0.341,-0.222l-0.341,-0.224l-0.34,-0.224l-0.339,-0.226l-0.338,-0.226l-0.338,-0.228l-0.337,-0.228l-0.336,-0.23l-0.336,-0.23l-0.335,-0.232l-0.334,-0.232l-0.333,-0.234l-0.333,-0.234l-0.332,-0.235l-0.331,-0.237l-0.331,-0.237l-0.329,-0.238l-0.329,-0.24l-0.328,-0.24l-0.328,-0.241l-0.326,-0.242l-0.326,-0.243l-0.326,-0.244l-0.324,-0.245l-0.324,-0.246l-0.323,-0.247l-0.322,-0.248l-0.321,-0.248l-0.321,-0.25l-0.319,-0.251l-0.32,-0.251l-0.318,-0.253l-0.317,-0.253l-0.317,-0.255l-0.316,-0.255l-0.315,-0.256l-0.315,-0.257l-0.313,-0.258l-0.313,-0.259l-0.312,-0.26l-0.311,-0.261l-0.311,-0.262l-0.309,-0.262l-0.309,-0.264l-0.308,-0.264l-0.307,-0.266l-0.307,-0.266l-0.305,-0.267l-0.305,-0.268l-0.304,-0.269l-0.303,-0.27l-0.303,-0.271l-0.301,-0.271l-0.301,-0.273l-0.3,-0.273l-0.299,-0.275l-0.298,-0.275l-0.298,-0.276l-0.296,-0.277l-0.296,-0.278l-0.295,-0.278l-0.294,-0.28l-0.293,-0.28l-0.293,-0.282l-0.291,-0.282l-0.291,-0.283l-0.29,-0.284l-0.289,-0.284l-0.288,-0.286l-0.287,-0.287l-0.287,-0.287l-0.285,-0.288l-0.285,-0.289l-0.284,-0.29l-0.283,-0.291l-0.282,-0.291l-0.282,-0.293l-0.28,-0.293l-0.28,-0.294l-0.278,-0.295l-0.278,-0.296l-0.277,-0.296l-0.276,-0.298l-0.275,-0.298l-0.275,-0.299l-0.273,-0.3l-0.273,-0.301l-0.271,-0.301l-0.271,-0.303l-0.27,-0.303l-0.269,-0.304l-0.268,-0.305l-0.267,-0.305l-0.266,-0.307l-0.266,-0.307l-0.264,-0.308l-0.264,-0.309l-0.262,-0.309l-0.262,-0.311l-0.261,-0.311l-0.26,-0.312l-0.259,-0.313l-0.258,-0.313l-0.257,-0.315l-0.256,-0.315l-0.256,-0.316l-0.254,-0.317l-0.253,-0.317l-0.253,-0.318l-0.251,-0.32l-0.251,-0.319l-0.25,-0.321l-0.248,-0.321l-0.248,-0.322l-0.247,-0.323l-0.246,-0.324l-0.245,-0.324l-0.244,-0.326l-0.243,-0.326l-0.242,-0.326l-0.241,-0.328l-0.24,-0.328l-0.24,-0.329l-0.238,-0.329l-0.237,-0.331l-0.237,-0.331l-0.235,-0.332l-0.234,-0.333l-0.234,-0.333l-0.232,-0.334l-0.232,-0.335l-0.23,-0.336l-0.23,-0.336l-0.228,-0.337l-0.228,-0.338l-0.226,-0.338l-0.226,-0.339l-0.224,-0.34l-0.224,-0.341l-0.222,-0.341l-0.222,-0.342l-0.22,-0.343l-0.22,-0.343l-0.219,-0.345l-0.217,-0.344l-0.217,-0.346l-0.215,-0.346l-0.215,-0.347l-0.213,-0.348l-0.213,-0.348l-0.211,-0.349l-0.211,-0.35l-0.209,-0.351l-0.208,-0.351l-0.208,-0.351l-0.206,-0.353l-0.205,-0.353l-0.205,-0.354l-0.203,-0.354l-0.202,-0.355l-0.201,-0.356l-0.2,-0.357l-0.199,-0.357l-0.198,-0.358l-0.197,-0.358l-0.196,-0.359l-0.195,-0.36l-0.194,-0.361l-0.193,-0.361l-0.191,-0.362l-0.191,-0.362l-0.189,-0.363l-0.189,-0.364l-0.187,-0.364l-0.187,-0.365l-0.185,-0.366l-0.184,-0.366l-0.183,-0.367l-0.182,-0.367l-0.181,-0.369l-0.18,-0.368l-0.179,-0.37l-0.178,-0.37l-0.176,-0.371l-0.176,-0.371l-0.174,-0.372l-0.174,-0.372l-0.172,-0.373l-0.171,-0.374l-0.17,-0.374l-0.169,-0.375l-0.168,-0.376l-0.167,-0.376l-0.165,-0.377l-0.165,-0.377l-0.163,-0.378l-0.163,-0.379l-0.161,-0.379l-0.16,-0.38l-0.159,-0.38l-0.158,-0.381l-0.156,-0.381l-0.156,-0.382l-0.154,-0.383l-0.153,-0.383l-0.153,-0.384l-0.151,-0.385l-0.149,-0.385l-0.149,-0.385l-0.148,-0.386l-0.146,-0.387l-0.146,-0.387l-0.144,-0.388l-0.143,-0.388l-0.141,-0.389l-0.141,-0.389l-0.14,-0.39l-0.138,-0.391l-0.137,-0.391l-0.136,-0.392l-0.135,-0.392l-0.134,-0.393l-0.132,-0.393l-0.132,-0.394l-0.13,-0.394l-0.129,-0.395l-0.128,-0.395l-0.126,-0.396l-0.126,-0.397l-0.124,-0.397l-0.123,-0.397l-0.122,-0.398l-0.121,-0.399l-0.119,-0.399l-0.118,-0.399l-0.117,-0.401l-0.116,-0.4l-0.115,-0.401l-0.114,-0.402l-0.112,-0.402l-0.111,-0.402l-0.11,-0.404l-0.108,-0.403l-0.108,-0.404l-0.106,-0.405l-0.105,-0.405l-0.104,-0.405l-0.102,-0.407l-0.102,-0.406l-0.1,-0.407l-0.099,-0.408l-0.097,-0.408l-0.097,-0.408l-0.095,-0.409l-0.094,-0.409l-0.093,-0.41l-0.091,-0.41l-0.09,-0.411l-0.089,-0.411l-0.088,-0.412l-0.086,-0.412l-0.085,-0.413l-0.084,-0.413l-0.083,-0.413l-0.082,-0.414l-0.08,-0.415l-0.079,-0.415l-0.077,-0.415l-0.077,-0.416l-0.075,-0.416l-0.073,-0.416l-0.073,-0.417l-0.071,-0.418l-0.07,-0.418l-0.069,-0.418l-0.067,-0.419l-0.067,-0.419l-0.064,-0.419l-0.064,-0.42l-0.062,-0.421l-0.061,-0.421l-0.06,-0.421l-0.058,-0.422l-0.057,-0.422l-0.056,-0.422l-0.055,-0.423l-0.053,-0.423l-0.052,-0.424l-0.05,-0.424l-0.05,-0.424l-0.048,-0.425l-0.046,-0.425l-0.046,-0.426l-0.044,-0.426l-0.042,-0.426l-0.042,-0.427l-0.04,-0.427l-0.038,-0.427l-0.038,-0.428l-0.036,-0.428l-0.034,-0.429l-0.034,-0.429l-0.032,-0.429l-0.03,-0.43l-0.03,-0.43l-0.028,-0.43l-0.026,-0.431l-0.026,-0.431l-0.024,-0.432l-0.022,-0.431l-0.022,-0.432l-0.019,-0.433l-0.019,-0.433l-0.017,-0.433l-0.016,-0.433l-0.014,-0.434l-0.014,-0.434l-0.011,-0.435l-0.011,-0.435l-0.009,-0.435l-0.007,-0.435l-0.006,-0.436l-0.005,-0.436l-0.004,-0.436l-0.002,-0.437l0,-0.437l0,-0.437l0.002,-0.437l0.004,-0.436l0.005,-0.436l0.006,-0.436l0.007,-0.435l0.009,-0.435l0.011,-0.435l0.011,-0.435l0.014,-0.434l0.014,-0.434l0.016,-0.433l0.017,-0.433l0.019,-0.433l0.019,-0.433l0.022,-0.432l0.022,-0.431l0.024,-0.432l0.026,-0.431l0.026,-0.431l0.028,-0.43l0.03,-0.43l0.03,-0.43l0.032,-0.429l0.034,-0.429l0.034,-0.429l0.036,-0.428l0.038,-0.428l0.038,-0.427l0.04,-0.427l0.042,-0.427l0.042,-0.426l0.044,-0.426l0.046,-0.426l0.046,-0.425l0.048,-0.425l0.05,-0.424l0.05,-0.424l0.052,-0.424l0.053,-0.423l0.055,-0.423l0.056,-0.422l0.057,-0.422l0.058,-0.422l0.06,-0.421l0.061,-0.421l0.062,-0.421l0.064,-0.42l0.064,-0.419l0.067,-0.419l0.067,-0.419l0.069,-0.418l0.07,-0.418l0.071,-0.418l0.073,-0.417l0.073,-0.416l0.075,-0.416l0.077,-0.416l0.077,-0.415l0.079,-0.415l0.08,-0.415l0.082,-0.414l0.083,-0.413l0.084,-0.413l0.085,-0.413l0.086,-0.412l0.088,-0.412l0.089,-0.411l0.09,-0.411l0.091,-0.41l0.093,-0.41l0.094,-0.409l0.095,-0.409l0.097,-0.408l0.097,-0.408l0.099,-0.408l0.1,-0.407l0.102,-0.406l0.102,-0.407l0.104,-0.405l0.105,-0.405l0.106,-0.405l0.108,-0.404l0.108,-0.403l0.11,-0.404l0.111,-0.402l0.112,-0.402l0.114,-0.402l0.115,-0.401l0.116,-0.401l0.117,-0.4l0.118,-0.399l0.119,-0.399l0.121,-0.399l0.122,-0.398l0.123,-0.397l0.124,-0.397l0.126,-0.397l0.126,-0.396l0.128,-0.395l0.129,-0.395l0.13,-0.394l0.132,-0.394l0.132,-0.393l0.134,-0.393l0.135,-0.392l0.136,-0.392l0.137,-0.391l0.138,-0.391l0.14,-0.39l0.141,-0.389l0.141,-0.389l0.143,-0.388l0.144,-0.388l0.146,-0.387l0.146,-0.387l0.148,-0.386l0.149,-0.386l0.149,-0.384l0.151,-0.385l0.153,-0.384l0.153,-0.383l0.154,-0.383l0.156,-0.382l0.156,-0.381l0.158,-0.381l0.159,-0.38l0.16,-0.38l0.161,-0.379l0.163,-0.379l0.163,-0.378l0.165,-0.377l0.165,-0.377l0.167,-0.376l0.168,-0.376l0.169,-0.375l0.17,-0.374l0.171,-0.374l0.172,-0.373l0.174,-0.372l0.174,-0.372l0.176,-0.371l0.176,-0.371l0.178,-0.37l0.179,-0.37l0.18,-0.368l0.181,-0.369l0.182,-0.367l0.183,-0.367l0.184,-0.366l0.185,-0.366l0.187,-0.365l0.187,-0.364l0.189,-0.364l0.189,-0.363l0.191,-0.362l0.191,-0.362l0.193,-0.361l0.194,-0.361l0.195,-0.36l0.196,-0.359l0.197,-0.358l0.198,-0.358l0.199,-0.357l0.2,-0.357l0.201,-0.356l0.202,-0.355l0.203,-0.354l0.205,-0.354l0.205,-0.353l0.206,-0.353l0.208,-0.351l0.208,-0.352l0.209,-0.35l0.211,-0.35l0.211,-0.349l0.213,-0.348l0.213,-0.348l0.215,-0.347l0.215,-0.346l0.217,-0.346l0.217,-0.344l0.219,-0.345l0.22,-0.343l0.22,-0.343l0.222,-0.342l0.222,-0.341l0.224,-0.341l0.224,-0.34l0.226,-0.339l0.226,-0.338l0.228,-0.338l0.228,-0.337l0.23,-0.336l0.23,-0.336l0.232,-0.335l0.232,-0.334l0.234,-0.333l0.234,-0.333l0.235,-0.332l0.237,-0.331l0.237,-0.331l0.238,-0.329l0.24,-0.329l0.24,-0.328l0.241,-0.328l0.242,-0.326l0.243,-0.326l0.244,-0.326l0.245,-0.324l0.246,-0.324l0.247,-0.323l0.248,-0.322l0.248,-0.321l0.25,-0.321l0.251,-0.319l0.251,-0.32l0.253,-0.318l0.253,-0.317l0.254,-0.317l0.256,-0.316l0.256,-0.315l0.257,-0.315l0.258,-0.313l0.259,-0.313l0.26,-0.312l0.261,-0.311l0.262,-0.311l0.262,-0.309l0.264,-0.309l0.264,-0.308l0.266,-0.307l0.266,-0.307l0.267,-0.305l0.268,-0.305l0.269,-0.304l0.27,-0.303l0.271,-0.303l0.271,-0.301l0.273,-0.301l0.273,-0.3l0.275,-0.299l0.275,-0.298l0.276,-0.298l0.277,-0.296l0.278,-0.296l0.278,-0.295l0.28,-0.294l0.28,-0.293l0.282,-0.293l0.282,-0.291l0.283,-0.291l0.284,-0.29l0.285,-0.289l0.285,-0.288l0.287,-0.287l0.287,-0.287l0.288,-0.285l0.289,-0.285l0.29,-0.284l0.291,-0.283l0.291,-0.282l0.293,-0.282l0.293,-0.28l0.294,-0.28l0.295,-0.278l0.296,-0.278l0.296,-0.277l0.298,-0.276l0.298,-0.275l0.299,-0.275l0.3,-0.273l0.301,-0.273l0.301,-0.271l0.303,-0.271l0.303,-0.27l0.304,-0.269l0.305,-0.268l0.305,-0.267l0.307,-0.266l0.307,-0.266l0.308,-0.264l0.309,-0.264l0.309,-0.262l0.311,-0.262l0.311,-0.261l0.312,-0.26l0.313,-0.259l0.313,-0.258l0.315,-0.257l0.315,-0.256l0.316,-0.256l0.317,-0.254l0.317,-0.253l0.318,-0.253l0.32,-0.251l0.319,-0.251l0.321,-0.25l0.321,-0.248l0.322,-0.248l0.323,-0.247l0.324,-0.246l0.324,-0.245l0.326,-0.244l0.326,-0.243l0.326,-0.242l0.328,-0.241l0.328,-0.24l0.329,-0.24l0.329,-0.238l0.331,-0.237l0.331,-0.237l0.332,-0.235l0.333,-0.234l0.333,-0.234l0.334,-0.232l0.335,-0.232l0.336,-0.23l0.336,-0.23l0.337,-0.228l0.338,-0.228l0.338,-0.226l0.339,-0.226l0.34,-0.224l0.341,-0.224l0.341,-0.222l0.342,-0.222l0.343,-0.22l0.343,-0.22l0.345,-0.219l0.344,-0.217l0.346,-0.217l0.346,-0.215l0.347,-0.215l0.348,-0.213l0.348,-0.213l0.349,-0.211l0.35,-0.211l0.35,-0.209l0.352,-0.208l0.351,-0.208l0.353,-0.206l0.353,-0.205l0.354,-0.205l0.354,-0.203l0.355,-0.202l0.356,-0.201l0.357,-0.2l0.357,-0.199l0.358,-0.198l0.358,-0.197l0.359,-0.196l0.36,-0.195l0.361,-0.194l0.361,-0.193l0.362,-0.191l0.362,-0.191l0.363,-0.189l0.364,-0.189l0.364,-0.187l0.365,-0.187l0.366,-0.185l0.366,-0.184l0.367,-0.183l0.367,-0.182l0.369,-0.181l0.368,-0.18l0.37,-0.179l0.37,-0.178l0.371,-0.176l0.371,-0.176l0.372,-0.174l0.372,-0.174l0.373,-0.172l0.374,-0.171l0.374,-0.17l0.375,-0.169l0.376,-0.168l0.376,-0.167l0.377,-0.165l0.377,-0.165l0.378,-0.163l0.379,-0.163l0.379,-0.161l0.38,-0.16l0.38,-0.159l0.381,-0.158l0.381,-0.156l0.382,-0.156l0.383,-0.154l0.383,-0.153l0.384,-0.153l0.385,-0.151l0.384,-0.149l0.386,-0.149l0.386,-0.148l0.387,-0.146l0.387,-0.146l0.388,-0.144l0.388,-0.143l0.389,-0.141l0.389,-0.141l0.39,-0.14l0.391,-0.138l0.391,-0.137l0.392,-0.136l0.392,-0.135l0.393,-0.134l0.393,-0.132l0.394,-0.132l0.394,-0.13l0.395,-0.129l0.395,-0.128l0.396,-0.126l0.397,-0.126l0.397,-0.124l0.397,-0.123l0.398,-0.122l0.399,-0.121l0.399,-0.119l0.399,-0.118l0.4,-0.117l0.401,-0.116l0.401,-0.115l0.402,-0.114l0.402,-0.112l0.402,-0.111l0.404,-0.11l0.403,-0.108l0.404,-0.108l0.405,-0.106l0.405,-0.105l0.405,-0.104l0.407,-0.102l0.406,-0.102l0.407,-0.1l0.408,-0.099l0.408,-0.097l0.408,-0.097l0.409,-0.095l0.409,-0.094l0.41,-0.093l0.41,-0.091l0.411,-0.09l0.411,-0.089l0.412,-0.088l0.412,-0.086l0.413,-0.085l0.413,-0.084l0.413,-0.083l0.414,-0.082l0.415,-0.08l0.415,-0.079l0.415,-0.077l0.416,-0.077l0.416,-0.075l0.416,-0.073l0.417,-0.073l0.418,-0.071l0.418,-0.07l0.418,-0.069l0.419,-0.067l0.419,-0.067l0.419,-0.064l0.42,-0.064l0.421,-0.062l0.421,-0.061l0.421,-0.06l0.422,-0.058l0.422,-0.057l0.422,-0.056l0.423,-0.055l0.423,-0.053l0.424,-0.052l0.424,-0.05l0.424,-0.05l0.425,-0.048l0.425,-0.046l0.426,-0.046l0.426,-0.044l0.426,-0.042l0.427,-0.042l0.427,-0.04l0.427,-0.038l0.428,-0.038l0.428,-0.036l0.429,-0.034l0.429,-0.034l0.429,-0.032l0.43,-0.03l0.43,-0.03l0.43,-0.028l0.431,-0.026l0.431,-0.026l0.432,-0.024l0.431,-0.022l0.432,-0.022l0.433,-0.019l0.433,-0.019l0.433,-0.017l0.433,-0.016l0.434,-0.014l0.434,-0.014l0.435,-0.011l0.435,-0.011l0.435,-0.009l0.435,-0.007l0.436,-0.006l0.436,-0.005l0.436,-0.004l0.437,-0.002l0.437,0l0.437,0Zm-0.834,12.5l-0.397,0.002l-0.397,0.003l-0.397,0.005l-0.396,0.005l-0.396,0.007l-0.395,0.008l-0.395,0.01l-0.395,0.01l-0.395,0.012l-0.394,0.013l-0.394,0.015l-0.393,0.015l-0.393,0.017l-0.393,0.018l-0.393,0.02l-0.392,0.02l-0.392,0.022l-0.392,0.023l-0.391,0.024l-0.391,0.026l-0.39,0.026l-0.391,0.028l-0.389,0.029l-0.39,0.03l-0.389,0.032l-0.389,0.033l-0.388,0.034l-0.389,0.035l-0.387,0.036l-0.388,0.038l-0.387,0.038l-0.386,0.04l-0.387,0.041l-0.386,0.043l-0.385,0.043l-0.385,0.045l-0.385,0.046l-0.385,0.047l-0.384,0.048l-0.384,0.05l-0.383,0.05l-0.383,0.052l-0.383,0.053l-0.382,0.054l-0.382,0.056l-0.381,0.056l-0.381,0.058l-0.381,0.059l-0.38,0.06l-0.38,0.061l-0.38,0.062l-0.379,0.064l-0.379,0.064l-0.378,0.066l-0.378,0.067l-0.377,0.068l-0.377,0.07l-0.377,0.07l-0.376,0.072l-0.376,0.072l-0.376,0.074l-0.375,0.075l-0.375,0.076l-0.374,0.078l-0.374,0.078l-0.373,0.079l-0.373,0.081l-0.373,0.082l-0.372,0.083l-0.372,0.084l-0.371,0.085l-0.371,0.086l-0.37,0.088l-0.37,0.088l-0.37,0.09l-0.369,0.091l-0.368,0.092l-0.369,0.093l-0.368,0.094l-0.367,0.095l-0.367,0.096l-0.366,0.098l-0.366,0.098l-0.366,0.1l-0.365,0.101l-0.365,0.102l-0.364,0.103l-0.364,0.104l-0.363,0.105l-0.363,0.106l-0.362,0.107l-0.362,0.109l-0.361,0.109l-0.361,0.111l-0.361,0.111l-0.36,0.113l-0.359,0.114l-0.359,0.114l-0.359,0.116l-0.358,0.117l-0.358,0.118l-0.357,0.119l-0.356,0.121l-0.357,0.121l-0.355,0.122l-0.355,0.124l-0.355,0.124l-0.354,0.125l-0.354,0.127l-0.353,0.128l-0.353,0.128l-0.352,0.13l-0.352,0.131l-0.351,0.131l-0.351,0.133l-0.35,0.134l-0.35,0.135l-0.349,0.136l-0.348,0.137l-0.349,0.138l-0.347,0.139l-0.347,0.14l-0.347,0.141l-0.346,0.142l-0.345,0.143l-0.345,0.144l-0.345,0.146l-0.344,0.146l-0.343,0.147l-0.343,0.148l-0.342,0.149l-0.342,0.151l-0.341,0.151l-0.341,0.152l-0.34,0.153l-0.34,0.155l-0.339,0.155l-0.338,0.156l-0.338,0.157l-0.338,0.159l-0.336,0.159l-0.337,0.16l-0.335,0.161l-0.336,0.163l-0.334,0.163l-0.334,0.164l-0.334,0.165l-0.333,0.166l-0.332,0.168l-0.332,0.168l-0.331,0.169l-0.33,0.17l-0.33,0.171l-0.33,0.172l-0.329,0.173l-0.328,0.174l-0.328,0.175l-0.327,0.176l-0.326,0.176l-0.326,0.178l-0.326,0.179l-0.324,0.18l-0.324,0.18l-0.324,0.182l-0.323,0.182l-0.322,0.184l-0.322,0.184l-0.321,0.186l-0.321,0.186l-0.319,0.187l-0.32,0.189l-0.318,0.189l-0.318,0.19l-0.318,0.191l-0.317,0.192l-0.316,0.193l-0.315,0.193l-0.315,0.195l-0.315,0.196l-0.313,0.196l-0.313,0.198l-0.313,0.198l-0.312,0.199l-0.311,0.201l-0.31,0.201l-0.31,0.202l-0.309,0.203l-0.309,0.204l-0.308,0.204l-0.307,0.206l-0.307,0.207l-0.306,0.207l-0.305,0.208l-0.305,0.21l-0.304,0.21l-0.303,0.211l-0.303,0.212l-0.302,0.213l-0.301,0.213l-0.301,0.215l-0.3,0.215l-0.299,0.217l-0.299,0.217l-0.298,0.218l-0.297,0.219l-0.297,0.22l-0.296,0.22l-0.295,0.222l-0.295,0.222l-0.294,0.224l-0.293,0.224l-0.292,0.225l-0.292,0.226l-0.291,0.227l-0.291,0.227l-0.29,0.229l-0.289,0.229l-0.288,0.23l-0.287,0.231l-0.287,0.232l-0.287,0.233l-0.285,0.233l-0.285,0.234l-0.284,0.236l-0.283,0.236l-0.283,0.236l-0.282,0.238l-0.281,0.239l-0.281,0.239l-0.279,0.24l-0.279,0.241l-0.279,0.242l-0.277,0.243l-0.277,0.243l-0.276,0.244l-0.275,0.246l-0.275,0.245l-0.274,0.247l-0.273,0.248l-0.273,0.248l-0.271,0.249l-0.271,0.25l-0.27,0.251l-0.27,0.251l-0.268,0.253l-0.268,0.253l-0.267,0.254l-0.267,0.254l-0.265,0.256l-0.265,0.256l-0.264,0.257l-0.263,0.258l-0.263,0.259l-0.262,0.259l-0.261,0.26l-0.26,0.261l-0.259,0.262l-0.259,0.263l-0.258,0.263l-0.257,0.264l-0.256,0.265l-0.256,0.265l-0.254,0.267l-0.254,0.267l-0.253,0.268l-0.253,0.268l-0.251,0.27l-0.251,0.27l-0.25,0.271l-0.249,0.271l-0.248,0.273l-0.248,0.273l-0.247,0.274l-0.245,0.275l-0.246,0.275l-0.244,0.276l-0.243,0.277l-0.243,0.277l-0.242,0.279l-0.241,0.279l-0.24,0.279l-0.239,0.281l-0.239,0.281l-0.238,0.282l-0.236,0.283l-0.236,0.283l-0.236,0.284l-0.234,0.285l-0.233,0.285l-0.233,0.287l-0.232,0.287l-0.231,0.287l-0.23,0.288l-0.229,0.289l-0.229,0.29l-0.227,0.291l-0.227,0.291l-0.226,0.292l-0.225,0.292l-0.224,0.293l-0.224,0.294l-0.222,0.295l-0.222,0.295l-0.22,0.296l-0.22,0.297l-0.219,0.297l-0.218,0.298l-0.217,0.299l-0.217,0.299l-0.215,0.3l-0.215,0.301l-0.213,0.301l-0.213,0.302l-0.212,0.303l-0.211,0.303l-0.21,0.304l-0.21,0.305l-0.208,0.305l-0.207,0.306l-0.207,0.307l-0.206,0.307l-0.204,0.308l-0.204,0.309l-0.203,0.309l-0.202,0.31l-0.201,0.31l-0.201,0.311l-0.199,0.312l-0.198,0.313l-0.198,0.313l-0.196,0.313l-0.196,0.315l-0.195,0.315l-0.193,0.315l-0.193,0.316l-0.192,0.317l-0.191,0.318l-0.19,0.318l-0.189,0.318l-0.189,0.32l-0.187,0.319l-0.186,0.321l-0.186,0.321l-0.184,0.322l-0.184,0.322l-0.182,0.323l-0.182,0.324l-0.18,0.324l-0.18,0.324l-0.179,0.326l-0.178,0.326l-0.176,0.326l-0.176,0.327l-0.175,0.328l-0.174,0.328l-0.173,0.329l-0.172,0.33l-0.171,0.33l-0.17,0.33l-0.169,0.331l-0.168,0.332l-0.168,0.332l-0.166,0.333l-0.165,0.334l-0.164,0.334l-0.163,0.334l-0.163,0.336l-0.161,0.335l-0.16,0.337l-0.159,0.336l-0.159,0.338l-0.157,0.338l-0.156,0.338l-0.155,0.339l-0.155,0.34l-0.153,0.34l-0.152,0.341l-0.151,0.341l-0.151,0.342l-0.149,0.342l-0.148,0.343l-0.147,0.343l-0.146,0.344l-0.146,0.345l-0.144,0.345l-0.143,0.345l-0.142,0.346l-0.141,0.347l-0.14,0.347l-0.139,0.347l-0.138,0.349l-0.137,0.348l-0.136,0.349l-0.135,0.35l-0.134,0.35l-0.133,0.351l-0.131,0.351l-0.131,0.352l-0.13,0.352l-0.128,0.353l-0.128,0.353l-0.127,0.354l-0.125,0.354l-0.124,0.355l-0.124,0.355l-0.122,0.355l-0.121,0.357l-0.121,0.356l-0.119,0.357l-0.118,0.358l-0.117,0.358l-0.116,0.359l-0.114,0.359l-0.114,0.359l-0.113,0.36l-0.111,0.361l-0.111,0.361l-0.109,0.361l-0.109,0.362l-0.107,0.362l-0.106,0.363l-0.105,0.363l-0.104,0.364l-0.103,0.364l-0.102,0.365l-0.101,0.365l-0.1,0.366l-0.098,0.366l-0.098,0.366l-0.096,0.367l-0.095,0.367l-0.094,0.368l-0.093,0.369l-0.092,0.368l-0.091,0.369l-0.09,0.37l-0.088,0.37l-0.088,0.37l-0.086,0.371l-0.085,0.371l-0.084,0.372l-0.083,0.372l-0.082,0.373l-0.081,0.373l-0.079,0.373l-0.078,0.374l-0.078,0.374l-0.076,0.375l-0.075,0.375l-0.074,0.376l-0.072,0.376l-0.072,0.376l-0.07,0.377l-0.07,0.377l-0.068,0.377l-0.067,0.378l-0.066,0.378l-0.064,0.379l-0.064,0.379l-0.062,0.38l-0.061,0.38l-0.06,0.38l-0.059,0.381l-0.058,0.381l-0.056,0.381l-0.056,0.382l-0.054,0.382l-0.053,0.383l-0.052,0.383l-0.05,0.383l-0.05,0.384l-0.048,0.384l-0.047,0.385l-0.046,0.385l-0.045,0.385l-0.043,0.385l-0.043,0.386l-0.041,0.387l-0.04,0.386l-0.038,0.387l-0.038,0.388l-0.036,0.387l-0.035,0.389l-0.034,0.388l-0.033,0.389l-0.032,0.389l-0.03,0.39l-0.029,0.389l-0.028,0.391l-0.026,0.39l-0.026,0.391l-0.024,0.391l-0.023,0.392l-0.022,0.392l-0.02,0.392l-0.02,0.393l-0.018,0.393l-0.017,0.393l-0.015,0.393l-0.015,0.394l-0.013,0.394l-0.012,0.395l-0.01,0.395l-0.01,0.395l-0.008,0.395l-0.007,0.396l-0.005,0.396l-0.005,0.397l-0.003,0.397l-0.002,0.397l0,0.397l0,0.397l0.002,0.397l0.003,0.397l0.005,0.397l0.005,0.396l0.007,0.396l0.008,0.395l0.01,0.395l0.01,0.395l0.012,0.395l0.013,0.394l0.015,0.394l0.015,0.393l0.017,0.393l0.018,0.393l0.02,0.393l0.02,0.392l0.022,0.392l0.023,0.392l0.024,0.391l0.026,0.391l0.026,0.39l0.028,0.391l0.029,0.389l0.03,0.39l0.032,0.389l0.033,0.389l0.034,0.388l0.035,0.389l0.036,0.387l0.038,0.388l0.038,0.387l0.04,0.386l0.041,0.387l0.043,0.386l0.043,0.385l0.045,0.385l0.046,0.385l0.047,0.385l0.048,0.384l0.05,0.384l0.05,0.383l0.052,0.383l0.053,0.383l0.054,0.382l0.056,0.382l0.056,0.381l0.058,0.381l0.059,0.381l0.06,0.38l0.061,0.38l0.062,0.38l0.064,0.379l0.064,0.379l0.066,0.378l0.067,0.378l0.068,0.377l0.07,0.377l0.07,0.377l0.072,0.376l0.072,0.376l0.074,0.376l0.075,0.375l0.076,0.375l0.078,0.374l0.078,0.374l0.079,0.373l0.081,0.373l0.082,0.373l0.083,0.372l0.084,0.372l0.085,0.371l0.086,0.371l0.088,0.37l0.088,0.37l0.09,0.37l0.091,0.369l0.092,0.368l0.093,0.369l0.094,0.368l0.095,0.367l0.096,0.367l0.098,0.366l0.098,0.366l0.1,0.366l0.101,0.365l0.102,0.365l0.103,0.364l0.104,0.364l0.105,0.363l0.106,0.363l0.107,0.362l0.109,0.362l0.109,0.361l0.111,0.361l0.111,0.361l0.113,0.36l0.114,0.359l0.114,0.359l0.116,0.359l0.117,0.358l0.118,0.358l0.119,0.357l0.121,0.356l0.121,0.357l0.122,0.355l0.124,0.355l0.124,0.355l0.125,0.354l0.127,0.354l0.128,0.353l0.128,0.353l0.13,0.352l0.131,0.352l0.131,0.351l0.133,0.351l0.134,0.35l0.135,0.35l0.136,0.349l0.137,0.348l0.138,0.349l0.139,0.347l0.14,0.347l0.141,0.347l0.142,0.346l0.143,0.345l0.144,0.345l0.146,0.345l0.146,0.344l0.147,0.343l0.148,0.343l0.149,0.342l0.151,0.342l0.151,0.341l0.152,0.341l0.153,0.34l0.155,0.34l0.155,0.339l0.156,0.338l0.157,0.338l0.159,0.337l0.159,0.337l0.16,0.337l0.161,0.335l0.163,0.336l0.163,0.334l0.164,0.334l0.165,0.334l0.166,0.332l0.168,0.333l0.168,0.332l0.169,0.331l0.17,0.33l0.171,0.33l0.172,0.33l0.173,0.329l0.174,0.328l0.175,0.328l0.176,0.327l0.176,0.326l0.178,0.326l0.179,0.325l0.18,0.325l0.18,0.324l0.182,0.324l0.182,0.323l0.184,0.322l0.184,0.322l0.186,0.321l0.186,0.321l0.187,0.319l0.189,0.32l0.189,0.318l0.19,0.318l0.191,0.318l0.192,0.317l0.193,0.316l0.193,0.315l0.195,0.315l0.196,0.315l0.196,0.313l0.198,0.313l0.198,0.313l0.199,0.312l0.201,0.311l0.201,0.31l0.202,0.31l0.203,0.309l0.204,0.309l0.204,0.308l0.206,0.307l0.207,0.307l0.207,0.306l0.208,0.305l0.21,0.305l0.21,0.304l0.211,0.303l0.212,0.303l0.213,0.302l0.213,0.301l0.215,0.301l0.215,0.3l0.217,0.299l0.217,0.299l0.218,0.298l0.219,0.297l0.22,0.297l0.22,0.296l0.222,0.295l0.222,0.295l0.224,0.294l0.224,0.293l0.225,0.292l0.226,0.292l0.227,0.291l0.227,0.291l0.229,0.289l0.229,0.289l0.23,0.289l0.231,0.288l0.232,0.286l0.232,0.287l0.234,0.285l0.234,0.285l0.236,0.284l0.236,0.283l0.236,0.283l0.238,0.282l0.239,0.281l0.239,0.281l0.24,0.279l0.241,0.279l0.242,0.279l0.243,0.277l0.243,0.277l0.244,0.276l0.246,0.276l0.245,0.274l0.247,0.274l0.248,0.273l0.248,0.273l0.249,0.271l0.25,0.271l0.251,0.27l0.251,0.27l0.253,0.268l0.253,0.268l0.254,0.267l0.254,0.267l0.256,0.265l0.256,0.265l0.257,0.264l0.258,0.263l0.259,0.263l0.259,0.262l0.26,0.261l0.261,0.26l0.262,0.259l0.263,0.259l0.263,0.258l0.264,0.257l0.265,0.256l0.266,0.256l0.266,0.254l0.267,0.254l0.268,0.253l0.268,0.253l0.27,0.251l0.27,0.251l0.271,0.25l0.272,0.249l0.272,0.248l0.273,0.248l0.274,0.247l0.275,0.246l0.275,0.245l0.276,0.244l0.277,0.243l0.277,0.243l0.279,0.242l0.279,0.241l0.279,0.24l0.281,0.239l0.281,0.239l0.282,0.238l0.283,0.236l0.283,0.236l0.284,0.236l0.285,0.234l0.285,0.234l0.287,0.232l0.287,0.232l0.287,0.231l0.288,0.23l0.289,0.229l0.29,0.229l0.291,0.227l0.291,0.227l0.292,0.226l0.292,0.225l0.293,0.224l0.294,0.224l0.295,0.222l0.295,0.222l0.296,0.22l0.297,0.22l0.297,0.219l0.298,0.218l0.299,0.217l0.299,0.217l0.3,0.215l0.301,0.215l0.301,0.213l0.302,0.213l0.303,0.212l0.303,0.211l0.304,0.21l0.305,0.21l0.305,0.208l0.306,0.207l0.307,0.207l0.307,0.206l0.308,0.204l0.309,0.204l0.309,0.203l0.31,0.202l0.31,0.201l0.311,0.201l0.312,0.199l0.313,0.198l0.313,0.198l0.313,0.196l0.315,0.196l0.314,0.195l0.316,0.193l0.316,0.193l0.317,0.192l0.318,0.191l0.318,0.19l0.318,0.189l0.32,0.189l0.319,0.187l0.321,0.186l0.321,0.186l0.322,0.184l0.322,0.184l0.323,0.182l0.324,0.182l0.324,0.18l0.325,0.18l0.325,0.179l0.326,0.178l0.326,0.176l0.327,0.176l0.328,0.175l0.328,0.174l0.329,0.173l0.329,0.172l0.33,0.171l0.331,0.17l0.331,0.169l0.332,0.168l0.333,0.168l0.332,0.166l0.334,0.165l0.334,0.164l0.334,0.163l0.336,0.163l0.335,0.161l0.336,0.16l0.337,0.159l0.338,0.159l0.338,0.157l0.338,0.156l0.339,0.155l0.34,0.155l0.34,0.153l0.341,0.152l0.341,0.151l0.342,0.151l0.342,0.149l0.343,0.148l0.343,0.147l0.344,0.147l0.345,0.145l0.345,0.144l0.345,0.143l0.346,0.142l0.347,0.141l0.347,0.14l0.348,0.139l0.347,0.138l0.349,0.137l0.349,0.136l0.35,0.135l0.35,0.134l0.351,0.133l0.351,0.131l0.352,0.131l0.352,0.13l0.353,0.128l0.353,0.128l0.354,0.127l0.354,0.125l0.354,0.124l0.356,0.124l0.355,0.122l0.357,0.121l0.356,0.121l0.357,0.119l0.358,0.118l0.358,0.117l0.359,0.116l0.359,0.114l0.359,0.114l0.36,0.113l0.361,0.111l0.361,0.111l0.361,0.109l0.362,0.109l0.362,0.107l0.363,0.106l0.363,0.105l0.364,0.104l0.364,0.103l0.365,0.102l0.365,0.101l0.366,0.1l0.366,0.098l0.366,0.098l0.367,0.096l0.367,0.095l0.368,0.094l0.369,0.093l0.368,0.092l0.37,0.091l0.369,0.09l0.37,0.088l0.37,0.088l0.371,0.086l0.372,0.085l0.371,0.084l0.372,0.083l0.373,0.082l0.373,0.08l0.373,0.08l0.374,0.078l0.374,0.078l0.375,0.076l0.375,0.075l0.375,0.074l0.377,0.072l0.376,0.072l0.377,0.07l0.377,0.07l0.377,0.068l0.378,0.067l0.378,0.066l0.379,0.064l0.379,0.064l0.38,0.062l0.38,0.061l0.38,0.06l0.381,0.059l0.381,0.058l0.381,0.056l0.382,0.056l0.382,0.054l0.383,0.053l0.383,0.052l0.383,0.05l0.384,0.05l0.384,0.048l0.385,0.047l0.384,0.046l0.386,0.045l0.385,0.043l0.386,0.043l0.386,0.041l0.387,0.04l0.387,0.038l0.388,0.038l0.388,0.036l0.388,0.035l0.388,0.034l0.389,0.033l0.389,0.032l0.39,0.03l0.389,0.029l0.391,0.028l0.39,0.027l0.391,0.025l0.391,0.024l0.392,0.023l0.392,0.022l0.392,0.02l0.393,0.02l0.392,0.018l0.394,0.017l0.393,0.015l0.394,0.015l0.394,0.013l0.395,0.012l0.395,0.01l0.395,0.01l0.395,0.008l0.396,0.007l0.396,0.005l0.397,0.005l0.397,0.003l0.396,0.002l0.398,0l0.398,0l0.396,-0.002l0.397,-0.003l0.397,-0.005l0.396,-0.005l0.396,-0.007l0.395,-0.008l0.395,-0.01l0.395,-0.01l0.395,-0.012l0.394,-0.013l0.394,-0.015l0.393,-0.015l0.394,-0.017l0.392,-0.018l0.393,-0.02l0.392,-0.02l0.392,-0.022l0.392,-0.023l0.391,-0.024l0.391,-0.025l0.39,-0.027l0.391,-0.028l0.389,-0.029l0.39,-0.03l0.389,-0.032l0.389,-0.033l0.388,-0.034l0.388,-0.035l0.388,-0.036l0.388,-0.038l0.387,-0.038l0.387,-0.04l0.386,-0.041l0.386,-0.043l0.385,-0.043l0.386,-0.045l0.384,-0.046l0.385,-0.047l0.384,-0.048l0.384,-0.05l0.383,-0.05l0.383,-0.052l0.383,-0.053l0.382,-0.054l0.382,-0.056l0.381,-0.056l0.381,-0.058l0.381,-0.059l0.38,-0.06l0.38,-0.061l0.38,-0.062l0.379,-0.064l0.379,-0.064l0.378,-0.066l0.378,-0.067l0.377,-0.068l0.377,-0.07l0.377,-0.07l0.376,-0.072l0.377,-0.072l0.375,-0.074l0.375,-0.075l0.375,-0.076l0.374,-0.078l0.374,-0.078l0.373,-0.08l0.373,-0.08l0.373,-0.082l0.372,-0.083l0.371,-0.084l0.372,-0.085l0.371,-0.086l0.37,-0.088l0.37,-0.088l0.37,-0.09l0.369,-0.091l0.368,-0.092l0.369,-0.093l0.368,-0.094l0.367,-0.095l0.367,-0.096l0.366,-0.098l0.366,-0.098l0.366,-0.1l0.365,-0.101l0.365,-0.102l0.364,-0.103l0.364,-0.104l0.363,-0.105l0.362,-0.106l0.363,-0.107l0.362,-0.109l0.361,-0.109l0.361,-0.111l0.361,-0.111l0.36,-0.113l0.359,-0.114l0.359,-0.114l0.359,-0.116l0.358,-0.117l0.358,-0.118l0.357,-0.119l0.356,-0.121l0.357,-0.121l0.355,-0.122l0.356,-0.124l0.354,-0.124l0.354,-0.125l0.354,-0.127l0.353,-0.128l0.353,-0.128l0.352,-0.13l0.352,-0.131l0.351,-0.131l0.351,-0.133l0.35,-0.134l0.35,-0.135l0.349,-0.136l0.349,-0.137l0.347,-0.138l0.348,-0.139l0.347,-0.14l0.347,-0.141l0.346,-0.142l0.345,-0.143l0.345,-0.144l0.345,-0.145l0.344,-0.147l0.343,-0.147l0.343,-0.148l0.342,-0.149l0.342,-0.151l0.341,-0.151l0.341,-0.152l0.34,-0.153l0.34,-0.155l0.339,-0.155l0.338,-0.156l0.338,-0.157l0.338,-0.159l0.337,-0.159l0.336,-0.16l0.335,-0.161l0.336,-0.163l0.334,-0.163l0.334,-0.164l0.334,-0.165l0.332,-0.166l0.333,-0.168l0.332,-0.168l0.331,-0.169l0.33,-0.17l0.33,-0.171l0.33,-0.172l0.329,-0.173l0.328,-0.174l0.328,-0.175l0.327,-0.176l0.326,-0.176l0.326,-0.178l0.325,-0.179l0.325,-0.18l0.324,-0.18l0.324,-0.182l0.323,-0.182l0.322,-0.184l0.322,-0.184l0.321,-0.186l0.321,-0.186l0.319,-0.187l0.32,-0.189l0.318,-0.189l0.319,-0.19l0.317,-0.191l0.317,-0.192l0.316,-0.193l0.316,-0.193l0.314,-0.195l0.315,-0.196l0.313,-0.196l0.313,-0.198l0.313,-0.198l0.312,-0.199l0.311,-0.201l0.31,-0.201l0.31,-0.202l0.309,-0.203l0.309,-0.204l0.308,-0.204l0.307,-0.206l0.307,-0.207l0.306,-0.207l0.305,-0.208l0.305,-0.21l0.304,-0.21l0.303,-0.211l0.303,-0.212l0.302,-0.213l0.301,-0.213l0.301,-0.215l0.3,-0.215l0.299,-0.217l0.299,-0.217l0.298,-0.218l0.297,-0.219l0.297,-0.22l0.296,-0.22l0.295,-0.222l0.295,-0.222l0.294,-0.224l0.293,-0.224l0.292,-0.225l0.292,-0.226l0.291,-0.226l0.291,-0.228l0.289,-0.229l0.29,-0.229l0.288,-0.23l0.288,-0.231l0.286,-0.232l0.287,-0.232l0.285,-0.234l0.285,-0.234l0.284,-0.236l0.283,-0.236l0.283,-0.236l0.282,-0.238l0.281,-0.239l0.281,-0.239l0.279,-0.24l0.279,-0.241l0.279,-0.242l0.277,-0.243l0.277,-0.243l0.276,-0.244l0.276,-0.246l0.274,-0.245l0.274,-0.247l0.273,-0.248l0.272,-0.248l0.272,-0.249l0.271,-0.25l0.27,-0.251l0.27,-0.251l0.268,-0.253l0.268,-0.253l0.267,-0.254l0.266,-0.254l0.266,-0.256l0.265,-0.256l0.264,-0.257l0.263,-0.258l0.263,-0.259l0.262,-0.259l0.261,-0.26l0.26,-0.261l0.259,-0.262l0.259,-0.263l0.258,-0.263l0.257,-0.264l0.256,-0.265l0.256,-0.266l0.254,-0.266l0.254,-0.267l0.253,-0.268l0.253,-0.268l0.251,-0.27l0.251,-0.27l0.25,-0.271l0.249,-0.272l0.248,-0.272l0.248,-0.273l0.247,-0.274l0.245,-0.274l0.246,-0.276l0.244,-0.276l0.243,-0.277l0.243,-0.277l0.242,-0.279l0.241,-0.279l0.24,-0.279l0.239,-0.281l0.239,-0.281l0.238,-0.282l0.236,-0.283l0.236,-0.283l0.236,-0.284l0.234,-0.285l0.234,-0.285l0.232,-0.287l0.232,-0.286l0.231,-0.288l0.23,-0.288l0.229,-0.29l0.229,-0.289l0.228,-0.291l0.226,-0.291l0.226,-0.292l0.225,-0.292l0.224,-0.293l0.224,-0.294l0.222,-0.295l0.222,-0.295l0.22,-0.296l0.22,-0.297l0.219,-0.297l0.218,-0.298l0.217,-0.299l0.217,-0.299l0.215,-0.3l0.215,-0.301l0.213,-0.301l0.213,-0.302l0.212,-0.303l0.211,-0.303l0.21,-0.304l0.21,-0.305l0.208,-0.305l0.207,-0.306l0.207,-0.307l0.206,-0.307l0.204,-0.308l0.204,-0.309l0.203,-0.309l0.202,-0.31l0.201,-0.31l0.201,-0.311l0.199,-0.312l0.198,-0.313l0.198,-0.313l0.196,-0.313l0.196,-0.315l0.195,-0.314l0.193,-0.316l0.193,-0.316l0.192,-0.317l0.191,-0.317l0.19,-0.319l0.189,-0.318l0.189,-0.32l0.187,-0.319l0.186,-0.321l0.186,-0.321l0.184,-0.322l0.184,-0.322l0.182,-0.323l0.182,-0.324l0.18,-0.324l0.18,-0.325l0.179,-0.325l0.178,-0.326l0.176,-0.326l0.176,-0.327l0.175,-0.328l0.174,-0.328l0.173,-0.329l0.172,-0.33l0.171,-0.33l0.17,-0.33l0.169,-0.331l0.168,-0.332l0.168,-0.333l0.166,-0.332l0.165,-0.334l0.164,-0.334l0.163,-0.334l0.163,-0.336l0.161,-0.335l0.16,-0.336l0.159,-0.337l0.159,-0.338l0.157,-0.338l0.156,-0.338l0.155,-0.339l0.155,-0.34l0.153,-0.34l0.152,-0.341l0.151,-0.341l0.151,-0.342l0.149,-0.342l0.148,-0.343l0.147,-0.343l0.147,-0.344l0.145,-0.345l0.144,-0.345l0.143,-0.345l0.142,-0.346l0.141,-0.347l0.14,-0.347l0.139,-0.348l0.138,-0.347l0.137,-0.349l0.136,-0.349l0.135,-0.35l0.134,-0.35l0.133,-0.351l0.131,-0.351l0.131,-0.352l0.13,-0.352l0.128,-0.353l0.128,-0.353l0.127,-0.354l0.125,-0.354l0.124,-0.354l0.124,-0.356l0.122,-0.355l0.121,-0.357l0.121,-0.356l0.119,-0.357l0.118,-0.358l0.117,-0.358l0.116,-0.359l0.114,-0.359l0.114,-0.359l0.113,-0.36l0.111,-0.361l0.111,-0.361l0.109,-0.361l0.109,-0.362l0.107,-0.363l0.106,-0.362l0.105,-0.363l0.104,-0.364l0.103,-0.364l0.102,-0.365l0.101,-0.365l0.1,-0.366l0.098,-0.366l0.098,-0.366l0.096,-0.367l0.095,-0.367l0.094,-0.368l0.093,-0.369l0.092,-0.368l0.091,-0.369l0.09,-0.37l0.088,-0.37l0.088,-0.37l0.086,-0.371l0.085,-0.372l0.084,-0.371l0.083,-0.372l0.082,-0.373l0.08,-0.373l0.08,-0.373l0.078,-0.374l0.078,-0.374l0.076,-0.375l0.075,-0.375l0.074,-0.375l0.072,-0.377l0.072,-0.376l0.07,-0.377l0.07,-0.377l0.068,-0.377l0.067,-0.378l0.066,-0.378l0.064,-0.379l0.064,-0.379l0.062,-0.38l0.061,-0.38l0.06,-0.38l0.059,-0.381l0.058,-0.381l0.056,-0.381l0.056,-0.382l0.054,-0.382l0.053,-0.383l0.052,-0.383l0.05,-0.383l0.05,-0.384l0.048,-0.384l0.047,-0.385l0.046,-0.384l0.045,-0.386l0.043,-0.385l0.043,-0.386l0.041,-0.386l0.04,-0.387l0.038,-0.387l0.038,-0.388l0.036,-0.388l0.035,-0.388l0.034,-0.388l0.033,-0.389l0.032,-0.389l0.03,-0.39l0.029,-0.389l0.028,-0.391l0.027,-0.39l0.025,-0.391l0.024,-0.391l0.023,-0.392l0.022,-0.392l0.02,-0.392l0.02,-0.393l0.018,-0.392l0.017,-0.394l0.015,-0.393l0.015,-0.394l0.013,-0.394l0.012,-0.395l0.01,-0.395l0.01,-0.395l0.008,-0.395l0.007,-0.396l0.005,-0.396l0.005,-0.397l0.003,-0.397l0.002,-0.396l0,-0.398l0,-0.398l-0.002,-0.396l-0.003,-0.397l-0.005,-0.397l-0.005,-0.396l-0.007,-0.396l-0.008,-0.395l-0.01,-0.395l-0.01,-0.395l-0.012,-0.395l-0.013,-0.394l-0.015,-0.394l-0.015,-0.393l-0.017,-0.394l-0.018,-0.392l-0.02,-0.393l-0.02,-0.392l-0.022,-0.392l-0.023,-0.392l-0.024,-0.391l-0.025,-0.391l-0.027,-0.39l-0.028,-0.391l-0.029,-0.389l-0.03,-0.39l-0.032,-0.389l-0.033,-0.389l-0.034,-0.388l-0.035,-0.388l-0.036,-0.388l-0.038,-0.388l-0.038,-0.387l-0.04,-0.387l-0.041,-0.386l-0.043,-0.386l-0.043,-0.385l-0.045,-0.386l-0.046,-0.384l-0.047,-0.385l-0.048,-0.384l-0.05,-0.384l-0.05,-0.383l-0.052,-0.383l-0.053,-0.383l-0.054,-0.382l-0.056,-0.382l-0.056,-0.381l-0.058,-0.381l-0.059,-0.381l-0.06,-0.38l-0.061,-0.38l-0.062,-0.38l-0.064,-0.379l-0.064,-0.379l-0.066,-0.378l-0.067,-0.378l-0.068,-0.377l-0.07,-0.377l-0.07,-0.377l-0.072,-0.376l-0.072,-0.377l-0.074,-0.375l-0.075,-0.375l-0.076,-0.375l-0.078,-0.374l-0.078,-0.374l-0.08,-0.373l-0.08,-0.373l-0.082,-0.373l-0.083,-0.372l-0.084,-0.371l-0.085,-0.372l-0.086,-0.371l-0.088,-0.37l-0.088,-0.37l-0.09,-0.369l-0.091,-0.37l-0.092,-0.368l-0.093,-0.369l-0.094,-0.368l-0.095,-0.367l-0.096,-0.367l-0.098,-0.366l-0.098,-0.366l-0.1,-0.366l-0.101,-0.365l-0.102,-0.365l-0.103,-0.364l-0.104,-0.364l-0.105,-0.363l-0.106,-0.363l-0.107,-0.362l-0.109,-0.362l-0.109,-0.361l-0.111,-0.361l-0.111,-0.361l-0.113,-0.36l-0.114,-0.359l-0.114,-0.359l-0.116,-0.359l-0.117,-0.358l-0.118,-0.358l-0.119,-0.357l-0.121,-0.356l-0.121,-0.357l-0.122,-0.355l-0.124,-0.356l-0.124,-0.354l-0.125,-0.354l-0.127,-0.354l-0.128,-0.353l-0.128,-0.353l-0.13,-0.352l-0.131,-0.352l-0.131,-0.351l-0.133,-0.351l-0.134,-0.35l-0.135,-0.35l-0.136,-0.349l-0.137,-0.349l-0.138,-0.347l-0.139,-0.348l-0.14,-0.347l-0.141,-0.347l-0.142,-0.346l-0.143,-0.345l-0.144,-0.345l-0.145,-0.345l-0.147,-0.344l-0.147,-0.343l-0.148,-0.343l-0.149,-0.342l-0.151,-0.342l-0.151,-0.341l-0.152,-0.341l-0.153,-0.34l-0.155,-0.34l-0.155,-0.339l-0.156,-0.338l-0.157,-0.338l-0.159,-0.338l-0.159,-0.337l-0.16,-0.336l-0.161,-0.335l-0.163,-0.336l-0.163,-0.334l-0.164,-0.334l-0.165,-0.334l-0.166,-0.332l-0.168,-0.333l-0.168,-0.332l-0.169,-0.331l-0.17,-0.331l-0.171,-0.33l-0.172,-0.329l-0.173,-0.329l-0.174,-0.328l-0.175,-0.328l-0.176,-0.327l-0.176,-0.326l-0.178,-0.326l-0.179,-0.325l-0.18,-0.325l-0.18,-0.324l-0.182,-0.324l-0.182,-0.323l-0.184,-0.322l-0.184,-0.322l-0.186,-0.321l-0.186,-0.321l-0.187,-0.319l-0.189,-0.32l-0.189,-0.318l-0.19,-0.318l-0.191,-0.318l-0.192,-0.317l-0.193,-0.316l-0.193,-0.316l-0.195,-0.314l-0.196,-0.315l-0.196,-0.313l-0.198,-0.313l-0.198,-0.313l-0.199,-0.312l-0.201,-0.311l-0.201,-0.31l-0.202,-0.31l-0.203,-0.309l-0.204,-0.309l-0.204,-0.308l-0.206,-0.307l-0.207,-0.307l-0.207,-0.306l-0.208,-0.305l-0.21,-0.305l-0.21,-0.304l-0.211,-0.303l-0.212,-0.303l-0.213,-0.302l-0.213,-0.301l-0.215,-0.301l-0.215,-0.3l-0.217,-0.299l-0.217,-0.299l-0.218,-0.298l-0.219,-0.297l-0.22,-0.297l-0.22,-0.296l-0.222,-0.295l-0.222,-0.295l-0.224,-0.294l-0.224,-0.293l-0.225,-0.292l-0.226,-0.292l-0.227,-0.291l-0.227,-0.291l-0.229,-0.29l-0.229,-0.289l-0.23,-0.288l-0.231,-0.287l-0.232,-0.287l-0.232,-0.287l-0.234,-0.285l-0.234,-0.285l-0.236,-0.284l-0.236,-0.283l-0.236,-0.283l-0.238,-0.282l-0.239,-0.281l-0.239,-0.281l-0.24,-0.279l-0.241,-0.279l-0.242,-0.279l-0.243,-0.277l-0.243,-0.277l-0.244,-0.276l-0.245,-0.275l-0.246,-0.275l-0.247,-0.274l-0.248,-0.273l-0.248,-0.272l-0.249,-0.272l-0.25,-0.271l-0.251,-0.27l-0.251,-0.27l-0.253,-0.268l-0.253,-0.268l-0.254,-0.267l-0.254,-0.266l-0.256,-0.266l-0.256,-0.265l-0.257,-0.264l-0.258,-0.263l-0.259,-0.263l-0.259,-0.262l-0.26,-0.261l-0.261,-0.26l-0.262,-0.259l-0.263,-0.259l-0.263,-0.258l-0.264,-0.257l-0.265,-0.256l-0.265,-0.256l-0.267,-0.254l-0.267,-0.254l-0.268,-0.253l-0.268,-0.253l-0.27,-0.251l-0.27,-0.251l-0.271,-0.25l-0.271,-0.249l-0.273,-0.248l-0.273,-0.248l-0.274,-0.247l-0.274,-0.245l-0.276,-0.246l-0.276,-0.244l-0.277,-0.243l-0.277,-0.243l-0.279,-0.242l-0.279,-0.241l-0.279,-0.24l-0.281,-0.239l-0.281,-0.239l-0.282,-0.238l-0.283,-0.236l-0.283,-0.236l-0.284,-0.236l-0.285,-0.234l-0.285,-0.234l-0.287,-0.232l-0.286,-0.232l-0.288,-0.231l-0.289,-0.23l-0.289,-0.229l-0.289,-0.229l-0.291,-0.227l-0.291,-0.227l-0.292,-0.226l-0.292,-0.225l-0.293,-0.224l-0.294,-0.224l-0.295,-0.222l-0.295,-0.222l-0.296,-0.22l-0.297,-0.22l-0.297,-0.219l-0.298,-0.218l-0.299,-0.217l-0.299,-0.217l-0.3,-0.215l-0.301,-0.215l-0.301,-0.213l-0.302,-0.213l-0.303,-0.212l-0.303,-0.211l-0.304,-0.21l-0.305,-0.21l-0.305,-0.208l-0.306,-0.207l-0.307,-0.207l-0.307,-0.206l-0.308,-0.204l-0.309,-0.204l-0.309,-0.203l-0.31,-0.202l-0.31,-0.201l-0.311,-0.201l-0.312,-0.199l-0.313,-0.198l-0.313,-0.198l-0.313,-0.196l-0.315,-0.196l-0.315,-0.195l-0.315,-0.193l-0.316,-0.193l-0.317,-0.192l-0.318,-0.191l-0.318,-0.19l-0.318,-0.189l-0.32,-0.189l-0.319,-0.187l-0.321,-0.186l-0.321,-0.186l-0.322,-0.184l-0.322,-0.184l-0.323,-0.182l-0.324,-0.182l-0.324,-0.18l-0.325,-0.18l-0.325,-0.179l-0.326,-0.178l-0.326,-0.176l-0.327,-0.176l-0.328,-0.175l-0.328,-0.174l-0.329,-0.173l-0.33,-0.172l-0.33,-0.171l-0.33,-0.17l-0.331,-0.169l-0.332,-0.168l-0.333,-0.168l-0.332,-0.166l-0.334,-0.165l-0.334,-0.164l-0.334,-0.163l-0.336,-0.163l-0.335,-0.161l-0.337,-0.16l-0.337,-0.159l-0.337,-0.159l-0.338,-0.157l-0.338,-0.156l-0.339,-0.155l-0.34,-0.155l-0.34,-0.153l-0.341,-0.152l-0.341,-0.151l-0.342,-0.151l-0.342,-0.149l-0.343,-0.148l-0.343,-0.147l-0.344,-0.146l-0.345,-0.146l-0.345,-0.144l-0.345,-0.143l-0.346,-0.142l-0.347,-0.141l-0.347,-0.14l-0.347,-0.139l-0.349,-0.138l-0.348,-0.137l-0.349,-0.136l-0.35,-0.135l-0.35,-0.134l-0.351,-0.133l-0.351,-0.131l-0.352,-0.131l-0.352,-0.13l-0.353,-0.128l-0.353,-0.128l-0.354,-0.127l-0.354,-0.125l-0.355,-0.124l-0.355,-0.124l-0.355,-0.122l-0.357,-0.121l-0.356,-0.121l-0.357,-0.119l-0.358,-0.118l-0.358,-0.117l-0.359,-0.116l-0.359,-0.114l-0.359,-0.114l-0.36,-0.113l-0.361,-0.111l-0.361,-0.111l-0.361,-0.109l-0.362,-0.109l-0.362,-0.107l-0.363,-0.106l-0.363,-0.105l-0.364,-0.104l-0.364,-0.103l-0.365,-0.102l-0.365,-0.101l-0.366,-0.1l-0.366,-0.098l-0.366,-0.098l-0.367,-0.096l-0.367,-0.095l-0.368,-0.094l-0.369,-0.093l-0.368,-0.092l-0.369,-0.091l-0.37,-0.09l-0.37,-0.088l-0.37,-0.088l-0.371,-0.086l-0.371,-0.085l-0.372,-0.084l-0.372,-0.083l-0.373,-0.082l-0.373,-0.081l-0.373,-0.079l-0.374,-0.078l-0.374,-0.078l-0.375,-0.076l-0.375,-0.075l-0.376,-0.074l-0.376,-0.072l-0.376,-0.072l-0.377,-0.07l-0.377,-0.07l-0.377,-0.068l-0.378,-0.067l-0.378,-0.066l-0.379,-0.064l-0.379,-0.064l-0.38,-0.062l-0.38,-0.061l-0.38,-0.06l-0.381,-0.059l-0.381,-0.058l-0.381,-0.056l-0.382,-0.056l-0.382,-0.054l-0.383,-0.053l-0.383,-0.052l-0.383,-0.05l-0.384,-0.05l-0.384,-0.048l-0.385,-0.047l-0.385,-0.046l-0.385,-0.045l-0.385,-0.043l-0.386,-0.043l-0.387,-0.041l-0.386,-0.04l-0.387,-0.038l-0.388,-0.038l-0.387,-0.036l-0.389,-0.035l-0.388,-0.034l-0.389,-0.033l-0.389,-0.032l-0.39,-0.03l-0.389,-0.029l-0.391,-0.028l-0.39,-0.026l-0.391,-0.026l-0.391,-0.024l-0.392,-0.023l-0.392,-0.022l-0.392,-0.02l-0.393,-0.02l-0.393,-0.018l-0.393,-0.017l-0.393,-0.015l-0.394,-0.015l-0.394,-0.013l-0.395,-0.012l-0.395,-0.01l-0.395,-0.01l-0.395,-0.008l-0.396,-0.007l-0.396,-0.005l-0.397,-0.005l-0.397,-0.003l-0.397,-0.002l-0.397,0l-0.397,0Z" style="fill:#71df74;"/><g transform="matrix(0.451717,0,0,1.6973,22.8067,-155.939)"><g transform="matrix(5.9565,0,0,1.58525,-283.378,-88.073)"><text id="score-text" x="57.173px" y="180.374px" style="font-family:'Helvetica';font-size:41.667px;fill:#607d8b;">88</text></g></g><g transform="matrix(0.307593,0,0,0.664342,152.815,54.9528)"><g transform="matrix(3.50688,0,0,1.6237,-143.326,-93.8589)"><text id="score-max" x="57.173px" y="180.374px" style="font-family:'Helvetica';font-size:41.667px;fill:#607d8b;"><tspan>/100</tspan></text></g></g></svg>